# xmcd CD database file
#
# Track frame offsets:
#	150
#	18961
#	40172
#	59638
#	81744
#	100301
#	121257
#	138992
#	157002
#	177049
#
# Disc length: 2634 seconds
#
# Revision: 0
# Processed by: cddbd v1.5.1PL2 Copyright (c) Steve Scherf et al.
# Submitted via: CDex 1.51
#
DISCID=850a480a
DTITLE=Jeff Lorber - Kickin'It
DYEAR=2001
DGENRE=Jazz
TTITLE0=Jeff Lorber - Kick'in It
TTITLE1=Jeff Lorber - Reflections
TTITLE2=Jeff Lorber - Snakebite
TTITLE3=Jeff Lorber - The Bijou
TTITLE4=Jeff Lorber - The In Crowd
TTITLE5=Jeff Lorber - What It Is
TTITLE6=Jeff Lorber - Ain't Nobody
TTITLE7=Jeff Lorber - Chopsticks
TTITLE8=Jeff Lorber - Happy Endings
TTITLE9=Jeff Lorber - Keep That Same Ol'Feelin'
EXTD=YEAR: 2001
EXTT0=
EXTT1=
EXTT2=
EXTT3=
EXTT4=
EXTT5=
EXTT6=
EXTT7=
EXTT8=
EXTT9=
PLAYORDER=
